<svg width="32" height="32" viewBox="0 0 32 32" fill="none" xmlns="http://www.w3.org/2000/svg">
<path d="M2 10.4C2 13.5122 3.69249 16.2291 6.20726 17.6804C6.24405 16.6187 6.41994 15.5922 6.71727 14.6188C5.54227 13.5923 4.8 12.0828 4.8 10.4C4.8 7.30721 7.30721 4.8 10.4 4.8C12.0828 4.8 13.5923 5.54227 14.6188 6.71727C15.5922 6.41994 16.6187 6.24405 17.6804 6.20726C16.2291 3.69249 13.5122 2 10.4 2C5.76081 2 2 5.76081 2 10.4Z" fill="black"/>
<path d="M10.4 18.8C15.0392 18.8 18.8 15.0392 18.8 10.4C18.8 9.92951 18.7613 9.46805 18.687 9.01863C18.4929 9.00627 18.2972 9 18.1 9C17.3364 9 16.5949 9.09404 15.8862 9.27117C15.9608 9.63579 16 10.0133 16 10.4C16 13.4928 13.4928 16 10.4 16C10.0133 16 9.63579 15.9608 9.27117 15.8862C9.09404 16.5949 9 17.3364 9 18.1C9 18.2972 9.00627 18.4929 9.01863 18.687C9.46805 18.7613 9.92951 18.8 10.4 18.8Z" fill="black"/>
<path d="M27.2 18.1C27.2 23.1258 23.1258 27.2 18.1 27.2C13.2714 27.2 9.32116 23.4392 9.01863 18.687C8.00944 18.52 7.06097 18.1731 6.20726 17.6804C6.20243 17.8197 6.2 17.9596 6.2 18.1C6.2 24.6722 11.5278 30 18.1 30C24.6722 30 30 24.6722 30 18.1C30 11.5278 24.6722 6.2 18.1 6.2C17.9596 6.2 17.8197 6.20243 17.6804 6.20726C18.1731 7.06097 18.52 8.00944 18.687 9.01863C23.4392 9.32116 27.2 13.2714 27.2 18.1Z" fill="black"/>
<path d="M14.6188 6.71727C10.8461 7.86964 7.86964 10.8461 6.71727 14.6188C7.43177 15.243 8.30627 15.6887 9.27117 15.8862C10.0828 12.639 12.639 10.0828 15.8862 9.27117C15.6887 8.30627 15.243 7.43177 14.6188 6.71727Z" fill="black"/>
</svg>
