<svg width="61" height="61" viewBox="0 0 61 61" fill="none" xmlns="http://www.w3.org/2000/svg">
<path d="M0 0H1V1H0V0Z" fill="#0000C2"/>
<path d="M0 48H1V49H0V48Z" fill="#0000C2"/>
<path d="M0 24H1V25H0V24Z" fill="#0000C2"/>
<path d="M0 12H1V13H0V12Z" fill="#0000C2"/>
<path d="M0 36H1V37H0V36Z" fill="#0000C2"/>
<path d="M0 2H1V3H0V2Z" fill="#0000C2"/>
<path d="M0 50H1V51H0V50Z" fill="#0000C2"/>
<path d="M0 26H1V27H0V26Z" fill="#0000C2"/>
<path d="M0 14H1V15H0V14Z" fill="#0000C2"/>
<path d="M0 38H1V39H0V38Z" fill="#0000C2"/>
<path d="M0 4H1V5H0V4Z" fill="#0000C2"/>
<path d="M0 52H1V53H0V52Z" fill="#0000C2"/>
<path d="M0 28H1V29H0V28Z" fill="#0000C2"/>
<path d="M0 16H1V17H0V16Z" fill="#0000C2"/>
<path d="M0 40H1V41H0V40Z" fill="#0000C2"/>
<path d="M0 6H1V7H0V6Z" fill="#0000C2"/>
<path d="M0 54H1V55H0V54Z" fill="#0000C2"/>
<path d="M0 30H1V31H0V30Z" fill="#0000C2"/>
<path d="M0 18H1V19H0V18Z" fill="#0000C2"/>
<path d="M0 42H1V43H0V42Z" fill="#0000C2"/>
<path d="M0 8H1V9H0V8Z" fill="#0000C2"/>
<path d="M0 56H1V57H0V56Z" fill="#0000C2"/>
<path d="M0 32H1V33H0V32Z" fill="#0000C2"/>
<path d="M0 20H1V21H0V20Z" fill="#0000C2"/>
<path d="M0 44H1V45H0V44Z" fill="#0000C2"/>
<path d="M0 10H1V11H0V10Z" fill="#0000C2"/>
<path d="M0 58H1V59H0V58Z" fill="#0000C2"/>
<path d="M0 60H1V61H0V60Z" fill="#0000C2"/>
<path d="M0 34H1V35H0V34Z" fill="#0000C2"/>
<path d="M0 22H1V23H0V22Z" fill="#0000C2"/>
<path d="M0 46H1V47H0V46Z" fill="#0000C2"/>
<path d="M14 0H15V1H14V0Z" fill="#0000C2"/>
<path d="M14 48H15V49H14V48Z" fill="#0000C2"/>
<path d="M14 24H15V25H14V24Z" fill="#0000C2"/>
<path d="M14 12H15V13H14V12Z" fill="#0000C2"/>
<path d="M14 36H15V37H14V36Z" fill="#0000C2"/>
<path d="M14 2H15V3H14V2Z" fill="#0000C2"/>
<path d="M14 50H15V51H14V50Z" fill="#0000C2"/>
<path d="M14 26H15V27H14V26Z" fill="#0000C2"/>
<path d="M14 14H15V15H14V14Z" fill="#0000C2"/>
<path d="M14 38H15V39H14V38Z" fill="#0000C2"/>
<path d="M14 4H15V5H14V4Z" fill="#0000C2"/>
<path d="M14 52H15V53H14V52Z" fill="#0000C2"/>
<path d="M14 28H15V29H14V28Z" fill="#0000C2"/>
<path d="M14 16H15V17H14V16Z" fill="#0000C2"/>
<path d="M14 40H15V41H14V40Z" fill="#0000C2"/>
<path d="M14 6H15V7H14V6Z" fill="#0000C2"/>
<path d="M14 54H15V55H14V54Z" fill="#0000C2"/>
<path d="M14 30H15V31H14V30Z" fill="#0000C2"/>
<path d="M14 18H15V19H14V18Z" fill="#0000C2"/>
<path d="M14 42H15V43H14V42Z" fill="#0000C2"/>
<path d="M14 8H15V9H14V8Z" fill="#0000C2"/>
<path d="M14 56H15V57H14V56Z" fill="#0000C2"/>
<path d="M14 32H15V33H14V32Z" fill="#0000C2"/>
<path d="M14 20H15V21H14V20Z" fill="#0000C2"/>
<path d="M14 44H15V45H14V44Z" fill="#0000C2"/>
<path d="M14 10H15V11H14V10Z" fill="#0000C2"/>
<path d="M14 58H15V59H14V58Z" fill="#0000C2"/>
<path d="M14 60H15V61H14V60Z" fill="#0000C2"/>
<path d="M14 34H15V35H14V34Z" fill="#0000C2"/>
<path d="M14 22H15V23H14V22Z" fill="#0000C2"/>
<path d="M14 46H15V47H14V46Z" fill="#0000C2"/>
<path d="M2 0H3V1H2V0Z" fill="#0000C2"/>
<path d="M2 48H3V49H2V48Z" fill="#0000C2"/>
<path d="M2 24H3V25H2V24Z" fill="#0000C2"/>
<path d="M2 12H3V13H2V12Z" fill="#0000C2"/>
<path d="M2 36H3V37H2V36Z" fill="#0000C2"/>
<path d="M2 2H3V3H2V2Z" fill="#0000C2"/>
<path d="M2 50H3V51H2V50Z" fill="#0000C2"/>
<path d="M2 26H3V27H2V26Z" fill="#0000C2"/>
<path d="M2 14H3V15H2V14Z" fill="#0000C2"/>
<path d="M2 38H3V39H2V38Z" fill="#0000C2"/>
<path d="M2 4H3V5H2V4Z" fill="#0000C2"/>
<path d="M2 52H3V53H2V52Z" fill="#0000C2"/>
<path d="M2 28H3V29H2V28Z" fill="#0000C2"/>
<path d="M2 16H3V17H2V16Z" fill="#0000C2"/>
<path d="M2 40H3V41H2V40Z" fill="#0000C2"/>
<path d="M2 6H3V7H2V6Z" fill="#0000C2"/>
<path d="M2 54H3V55H2V54Z" fill="#0000C2"/>
<path d="M2 30H3V31H2V30Z" fill="#0000C2"/>
<path d="M2 18H3V19H2V18Z" fill="#0000C2"/>
<path d="M2 42H3V43H2V42Z" fill="#0000C2"/>
<path d="M2 8H3V9H2V8Z" fill="#0000C2"/>
<path d="M2 56H3V57H2V56Z" fill="#0000C2"/>
<path d="M2 32H3V33H2V32Z" fill="#0000C2"/>
<path d="M2 20H3V21H2V20Z" fill="#0000C2"/>
<path d="M2 44H3V45H2V44Z" fill="#0000C2"/>
<path d="M2 10H3V11H2V10Z" fill="#0000C2"/>
<path d="M2 58H3V59H2V58Z" fill="#0000C2"/>
<path d="M2 60H3V61H2V60Z" fill="#0000C2"/>
<path d="M2 34H3V35H2V34Z" fill="#0000C2"/>
<path d="M2 22H3V23H2V22Z" fill="#0000C2"/>
<path d="M2 46H3V47H2V46Z" fill="#0000C2"/>
<path d="M16 0H17V1H16V0Z" fill="#0000C2"/>
<path d="M16 48H17V49H16V48Z" fill="#0000C2"/>
<path d="M16 24H17V25H16V24Z" fill="#0000C2"/>
<path d="M16 12H17V13H16V12Z" fill="#0000C2"/>
<path d="M16 36H17V37H16V36Z" fill="#0000C2"/>
<path d="M16 2H17V3H16V2Z" fill="#0000C2"/>
<path d="M16 50H17V51H16V50Z" fill="#0000C2"/>
<path d="M16 26H17V27H16V26Z" fill="#0000C2"/>
<path d="M16 14H17V15H16V14Z" fill="#0000C2"/>
<path d="M16 38H17V39H16V38Z" fill="#0000C2"/>
<path d="M16 4H17V5H16V4Z" fill="#0000C2"/>
<path d="M16 52H17V53H16V52Z" fill="#0000C2"/>
<path d="M16 28H17V29H16V28Z" fill="#0000C2"/>
<path d="M16 16H17V17H16V16Z" fill="#0000C2"/>
<path d="M16 40H17V41H16V40Z" fill="#0000C2"/>
<path d="M16 6H17V7H16V6Z" fill="#0000C2"/>
<path d="M16 54H17V55H16V54Z" fill="#0000C2"/>
<path d="M16 30H17V31H16V30Z" fill="#0000C2"/>
<path d="M16 18H17V19H16V18Z" fill="#0000C2"/>
<path d="M16 42H17V43H16V42Z" fill="#0000C2"/>
<path d="M16 8H17V9H16V8Z" fill="#0000C2"/>
<path d="M16 56H17V57H16V56Z" fill="#0000C2"/>
<path d="M16 32H17V33H16V32Z" fill="#0000C2"/>
<path d="M16 20H17V21H16V20Z" fill="#0000C2"/>
<path d="M16 44H17V45H16V44Z" fill="#0000C2"/>
<path d="M16 10H17V11H16V10Z" fill="#0000C2"/>
<path d="M16 58H17V59H16V58Z" fill="#0000C2"/>
<path d="M16 60H17V61H16V60Z" fill="#0000C2"/>
<path d="M16 34H17V35H16V34Z" fill="#0000C2"/>
<path d="M16 22H17V23H16V22Z" fill="#0000C2"/>
<path d="M16 46H17V47H16V46Z" fill="#0000C2"/>
<path d="M4 0H5V1H4V0Z" fill="#0000C2"/>
<path d="M4 48H5V49H4V48Z" fill="#0000C2"/>
<path d="M4 24H5V25H4V24Z" fill="#0000C2"/>
<path d="M4 12H5V13H4V12Z" fill="#0000C2"/>
<path d="M4 36H5V37H4V36Z" fill="#0000C2"/>
<path d="M4 2H5V3H4V2Z" fill="#0000C2"/>
<path d="M4 50H5V51H4V50Z" fill="#0000C2"/>
<path d="M4 26H5V27H4V26Z" fill="#0000C2"/>
<path d="M4 14H5V15H4V14Z" fill="#0000C2"/>
<path d="M4 38H5V39H4V38Z" fill="#0000C2"/>
<path d="M4 4H5V5H4V4Z" fill="#0000C2"/>
<path d="M4 52H5V53H4V52Z" fill="#0000C2"/>
<path d="M4 28H5V29H4V28Z" fill="#0000C2"/>
<path d="M4 16H5V17H4V16Z" fill="#0000C2"/>
<path d="M4 40H5V41H4V40Z" fill="#0000C2"/>
<path d="M4 6H5V7H4V6Z" fill="#0000C2"/>
<path d="M4 54H5V55H4V54Z" fill="#0000C2"/>
<path d="M4 30H5V31H4V30Z" fill="#0000C2"/>
<path d="M4 18H5V19H4V18Z" fill="#0000C2"/>
<path d="M4 42H5V43H4V42Z" fill="#0000C2"/>
<path d="M4 8H5V9H4V8Z" fill="#0000C2"/>
<path d="M4 56H5V57H4V56Z" fill="#0000C2"/>
<path d="M4 32H5V33H4V32Z" fill="#0000C2"/>
<path d="M4 20H5V21H4V20Z" fill="#0000C2"/>
<path d="M4 44H5V45H4V44Z" fill="#0000C2"/>
<path d="M4 10H5V11H4V10Z" fill="#0000C2"/>
<path d="M4 58H5V59H4V58Z" fill="#0000C2"/>
<path d="M4 60H5V61H4V60Z" fill="#0000C2"/>
<path d="M4 34H5V35H4V34Z" fill="#0000C2"/>
<path d="M4 22H5V23H4V22Z" fill="#0000C2"/>
<path d="M4 46H5V47H4V46Z" fill="#0000C2"/>
<path d="M18 0H19V1H18V0Z" fill="#0000C2"/>
<path d="M18 48H19V49H18V48Z" fill="#0000C2"/>
<path d="M18 24H19V25H18V24Z" fill="#0000C2"/>
<path d="M18 12H19V13H18V12Z" fill="#0000C2"/>
<path d="M18 36H19V37H18V36Z" fill="#0000C2"/>
<path d="M18 2H19V3H18V2Z" fill="#0000C2"/>
<path d="M18 50H19V51H18V50Z" fill="#0000C2"/>
<path d="M18 26H19V27H18V26Z" fill="#0000C2"/>
<path d="M18 14H19V15H18V14Z" fill="#0000C2"/>
<path d="M18 38H19V39H18V38Z" fill="#0000C2"/>
<path d="M18 4H19V5H18V4Z" fill="#0000C2"/>
<path d="M18 52H19V53H18V52Z" fill="#0000C2"/>
<path d="M18 28H19V29H18V28Z" fill="#0000C2"/>
<path d="M18 16H19V17H18V16Z" fill="#0000C2"/>
<path d="M18 40H19V41H18V40Z" fill="#0000C2"/>
<path d="M18 6H19V7H18V6Z" fill="#0000C2"/>
<path d="M18 54H19V55H18V54Z" fill="#0000C2"/>
<path d="M18 30H19V31H18V30Z" fill="#0000C2"/>
<path d="M18 18H19V19H18V18Z" fill="#0000C2"/>
<path d="M18 42H19V43H18V42Z" fill="#0000C2"/>
<path d="M18 8H19V9H18V8Z" fill="#0000C2"/>
<path d="M18 56H19V57H18V56Z" fill="#0000C2"/>
<path d="M18 32H19V33H18V32Z" fill="#0000C2"/>
<path d="M18 20H19V21H18V20Z" fill="#0000C2"/>
<path d="M18 44H19V45H18V44Z" fill="#0000C2"/>
<path d="M18 10H19V11H18V10Z" fill="#0000C2"/>
<path d="M18 58H19V59H18V58Z" fill="#0000C2"/>
<path d="M18 60H19V61H18V60Z" fill="#0000C2"/>
<path d="M18 34H19V35H18V34Z" fill="#0000C2"/>
<path d="M18 22H19V23H18V22Z" fill="#0000C2"/>
<path d="M18 46H19V47H18V46Z" fill="#0000C2"/>
<path d="M38 0H39V1H38V0Z" fill="#0000C2"/>
<path d="M38 48H39V49H38V48Z" fill="#0000C2"/>
<path d="M38 24H39V25H38V24Z" fill="#0000C2"/>
<path d="M38 12H39V13H38V12Z" fill="#0000C2"/>
<path d="M38 36H39V37H38V36Z" fill="#0000C2"/>
<path d="M38 2H39V3H38V2Z" fill="#0000C2"/>
<path d="M38 50H39V51H38V50Z" fill="#0000C2"/>
<path d="M38 26H39V27H38V26Z" fill="#0000C2"/>
<path d="M38 14H39V15H38V14Z" fill="#0000C2"/>
<path d="M38 38H39V39H38V38Z" fill="#0000C2"/>
<path d="M38 4H39V5H38V4Z" fill="#0000C2"/>
<path d="M38 52H39V53H38V52Z" fill="#0000C2"/>
<path d="M38 28H39V29H38V28Z" fill="#0000C2"/>
<path d="M38 16H39V17H38V16Z" fill="#0000C2"/>
<path d="M38 40H39V41H38V40Z" fill="#0000C2"/>
<path d="M38 6H39V7H38V6Z" fill="#0000C2"/>
<path d="M38 54H39V55H38V54Z" fill="#0000C2"/>
<path d="M38 30H39V31H38V30Z" fill="#0000C2"/>
<path d="M38 18H39V19H38V18Z" fill="#0000C2"/>
<path d="M38 42H39V43H38V42Z" fill="#0000C2"/>
<path d="M38 8H39V9H38V8Z" fill="#0000C2"/>
<path d="M38 56H39V57H38V56Z" fill="#0000C2"/>
<path d="M38 32H39V33H38V32Z" fill="#0000C2"/>
<path d="M38 20H39V21H38V20Z" fill="#0000C2"/>
<path d="M38 44H39V45H38V44Z" fill="#0000C2"/>
<path d="M38 10H39V11H38V10Z" fill="#0000C2"/>
<path d="M38 58H39V59H38V58Z" fill="#0000C2"/>
<path d="M38 60H39V61H38V60Z" fill="#0000C2"/>
<path d="M38 34H39V35H38V34Z" fill="#0000C2"/>
<path d="M38 22H39V23H38V22Z" fill="#0000C2"/>
<path d="M38 46H39V47H38V46Z" fill="#0000C2"/>
<path d="M6 0H7V1H6V0Z" fill="#0000C2"/>
<path d="M6 48H7V49H6V48Z" fill="#0000C2"/>
<path d="M6 24H7V25H6V24Z" fill="#0000C2"/>
<path d="M6 12H7V13H6V12Z" fill="#0000C2"/>
<path d="M6 36H7V37H6V36Z" fill="#0000C2"/>
<path d="M6 2H7V3H6V2Z" fill="#0000C2"/>
<path d="M6 50H7V51H6V50Z" fill="#0000C2"/>
<path d="M6 26H7V27H6V26Z" fill="#0000C2"/>
<path d="M6 14H7V15H6V14Z" fill="#0000C2"/>
<path d="M6 38H7V39H6V38Z" fill="#0000C2"/>
<path d="M6 4H7V5H6V4Z" fill="#0000C2"/>
<path d="M6 52H7V53H6V52Z" fill="#0000C2"/>
<path d="M6 28H7V29H6V28Z" fill="#0000C2"/>
<path d="M6 16H7V17H6V16Z" fill="#0000C2"/>
<path d="M6 40H7V41H6V40Z" fill="#0000C2"/>
<path d="M6 6H7V7H6V6Z" fill="#0000C2"/>
<path d="M6 54H7V55H6V54Z" fill="#0000C2"/>
<path d="M6 30H7V31H6V30Z" fill="#0000C2"/>
<path d="M6 18H7V19H6V18Z" fill="#0000C2"/>
<path d="M6 42H7V43H6V42Z" fill="#0000C2"/>
<path d="M6 8H7V9H6V8Z" fill="#0000C2"/>
<path d="M6 56H7V57H6V56Z" fill="#0000C2"/>
<path d="M6 32H7V33H6V32Z" fill="#0000C2"/>
<path d="M6 20H7V21H6V20Z" fill="#0000C2"/>
<path d="M6 44H7V45H6V44Z" fill="#0000C2"/>
<path d="M6 10H7V11H6V10Z" fill="#0000C2"/>
<path d="M6 58H7V59H6V58Z" fill="#0000C2"/>
<path d="M6 60H7V61H6V60Z" fill="#0000C2"/>
<path d="M6 34H7V35H6V34Z" fill="#0000C2"/>
<path d="M6 22H7V23H6V22Z" fill="#0000C2"/>
<path d="M6 46H7V47H6V46Z" fill="#0000C2"/>
<path d="M20 0H21V1H20V0Z" fill="#0000C2"/>
<path d="M20 48H21V49H20V48Z" fill="#0000C2"/>
<path d="M20 24H21V25H20V24Z" fill="#0000C2"/>
<path d="M20 12H21V13H20V12Z" fill="#0000C2"/>
<path d="M20 36H21V37H20V36Z" fill="#0000C2"/>
<path d="M20 2H21V3H20V2Z" fill="#0000C2"/>
<path d="M20 50H21V51H20V50Z" fill="#0000C2"/>
<path d="M20 26H21V27H20V26Z" fill="#0000C2"/>
<path d="M20 14H21V15H20V14Z" fill="#0000C2"/>
<path d="M20 38H21V39H20V38Z" fill="#0000C2"/>
<path d="M20 4H21V5H20V4Z" fill="#0000C2"/>
<path d="M20 52H21V53H20V52Z" fill="#0000C2"/>
<path d="M20 28H21V29H20V28Z" fill="#0000C2"/>
<path d="M20 16H21V17H20V16Z" fill="#0000C2"/>
<path d="M20 40H21V41H20V40Z" fill="#0000C2"/>
<path d="M20 6H21V7H20V6Z" fill="#0000C2"/>
<path d="M20 54H21V55H20V54Z" fill="#0000C2"/>
<path d="M20 30H21V31H20V30Z" fill="#0000C2"/>
<path d="M20 18H21V19H20V18Z" fill="#0000C2"/>
<path d="M20 42H21V43H20V42Z" fill="#0000C2"/>
<path d="M20 8H21V9H20V8Z" fill="#0000C2"/>
<path d="M20 56H21V57H20V56Z" fill="#0000C2"/>
<path d="M20 32H21V33H20V32Z" fill="#0000C2"/>
<path d="M20 20H21V21H20V20Z" fill="#0000C2"/>
<path d="M20 44H21V45H20V44Z" fill="#0000C2"/>
<path d="M20 10H21V11H20V10Z" fill="#0000C2"/>
<path d="M20 58H21V59H20V58Z" fill="#0000C2"/>
<path d="M20 60H21V61H20V60Z" fill="#0000C2"/>
<path d="M20 34H21V35H20V34Z" fill="#0000C2"/>
<path d="M20 22H21V23H20V22Z" fill="#0000C2"/>
<path d="M20 46H21V47H20V46Z" fill="#0000C2"/>
<path d="M40 0H41V1H40V0Z" fill="#0000C2"/>
<path d="M40 48H41V49H40V48Z" fill="#0000C2"/>
<path d="M40 24H41V25H40V24Z" fill="#0000C2"/>
<path d="M40 12H41V13H40V12Z" fill="#0000C2"/>
<path d="M40 36H41V37H40V36Z" fill="#0000C2"/>
<path d="M40 2H41V3H40V2Z" fill="#0000C2"/>
<path d="M40 50H41V51H40V50Z" fill="#0000C2"/>
<path d="M40 26H41V27H40V26Z" fill="#0000C2"/>
<path d="M40 14H41V15H40V14Z" fill="#0000C2"/>
<path d="M40 38H41V39H40V38Z" fill="#0000C2"/>
<path d="M40 4H41V5H40V4Z" fill="#0000C2"/>
<path d="M40 52H41V53H40V52Z" fill="#0000C2"/>
<path d="M40 28H41V29H40V28Z" fill="#0000C2"/>
<path d="M40 16H41V17H40V16Z" fill="#0000C2"/>
<path d="M40 40H41V41H40V40Z" fill="#0000C2"/>
<path d="M40 6H41V7H40V6Z" fill="#0000C2"/>
<path d="M40 54H41V55H40V54Z" fill="#0000C2"/>
<path d="M40 30H41V31H40V30Z" fill="#0000C2"/>
<path d="M40 18H41V19H40V18Z" fill="#0000C2"/>
<path d="M40 42H41V43H40V42Z" fill="#0000C2"/>
<path d="M40 8H41V9H40V8Z" fill="#0000C2"/>
<path d="M40 56H41V57H40V56Z" fill="#0000C2"/>
<path d="M40 32H41V33H40V32Z" fill="#0000C2"/>
<path d="M40 20H41V21H40V20Z" fill="#0000C2"/>
<path d="M40 44H41V45H40V44Z" fill="#0000C2"/>
<path d="M40 10H41V11H40V10Z" fill="#0000C2"/>
<path d="M40 58H41V59H40V58Z" fill="#0000C2"/>
<path d="M40 60H41V61H40V60Z" fill="#0000C2"/>
<path d="M40 34H41V35H40V34Z" fill="#0000C2"/>
<path d="M40 22H41V23H40V22Z" fill="#0000C2"/>
<path d="M40 46H41V47H40V46Z" fill="#0000C2"/>
<path d="M8 0H9V1H8V0Z" fill="#0000C2"/>
<path d="M8 48H9V49H8V48Z" fill="#0000C2"/>
<path d="M8 24H9V25H8V24Z" fill="#0000C2"/>
<path d="M8 12H9V13H8V12Z" fill="#0000C2"/>
<path d="M8 36H9V37H8V36Z" fill="#0000C2"/>
<path d="M8 2H9V3H8V2Z" fill="#0000C2"/>
<path d="M8 50H9V51H8V50Z" fill="#0000C2"/>
<path d="M8 26H9V27H8V26Z" fill="#0000C2"/>
<path d="M8 14H9V15H8V14Z" fill="#0000C2"/>
<path d="M8 38H9V39H8V38Z" fill="#0000C2"/>
<path d="M8 4H9V5H8V4Z" fill="#0000C2"/>
<path d="M8 52H9V53H8V52Z" fill="#0000C2"/>
<path d="M8 28H9V29H8V28Z" fill="#0000C2"/>
<path d="M8 16H9V17H8V16Z" fill="#0000C2"/>
<path d="M8 40H9V41H8V40Z" fill="#0000C2"/>
<path d="M8 6H9V7H8V6Z" fill="#0000C2"/>
<path d="M8 54H9V55H8V54Z" fill="#0000C2"/>
<path d="M8 30H9V31H8V30Z" fill="#0000C2"/>
<path d="M8 18H9V19H8V18Z" fill="#0000C2"/>
<path d="M8 42H9V43H8V42Z" fill="#0000C2"/>
<path d="M8 8H9V9H8V8Z" fill="#0000C2"/>
<path d="M8 56H9V57H8V56Z" fill="#0000C2"/>
<path d="M8 32H9V33H8V32Z" fill="#0000C2"/>
<path d="M8 20H9V21H8V20Z" fill="#0000C2"/>
<path d="M8 44H9V45H8V44Z" fill="#0000C2"/>
<path d="M8 10H9V11H8V10Z" fill="#0000C2"/>
<path d="M8 58H9V59H8V58Z" fill="#0000C2"/>
<path d="M8 60H9V61H8V60Z" fill="#0000C2"/>
<path d="M8 34H9V35H8V34Z" fill="#0000C2"/>
<path d="M8 22H9V23H8V22Z" fill="#0000C2"/>
<path d="M8 46H9V47H8V46Z" fill="#0000C2"/>
<path d="M22 0H23V1H22V0Z" fill="#0000C2"/>
<path d="M22 48H23V49H22V48Z" fill="#0000C2"/>
<path d="M22 24H23V25H22V24Z" fill="#0000C2"/>
<path d="M22 12H23V13H22V12Z" fill="#0000C2"/>
<path d="M22 36H23V37H22V36Z" fill="#0000C2"/>
<path d="M22 2H23V3H22V2Z" fill="#0000C2"/>
<path d="M22 50H23V51H22V50Z" fill="#0000C2"/>
<path d="M22 26H23V27H22V26Z" fill="#0000C2"/>
<path d="M22 14H23V15H22V14Z" fill="#0000C2"/>
<path d="M22 38H23V39H22V38Z" fill="#0000C2"/>
<path d="M22 4H23V5H22V4Z" fill="#0000C2"/>
<path d="M22 52H23V53H22V52Z" fill="#0000C2"/>
<path d="M22 28H23V29H22V28Z" fill="#0000C2"/>
<path d="M22 16H23V17H22V16Z" fill="#0000C2"/>
<path d="M22 40H23V41H22V40Z" fill="#0000C2"/>
<path d="M22 6H23V7H22V6Z" fill="#0000C2"/>
<path d="M22 54H23V55H22V54Z" fill="#0000C2"/>
<path d="M22 30H23V31H22V30Z" fill="#0000C2"/>
<path d="M22 18H23V19H22V18Z" fill="#0000C2"/>
<path d="M22 42H23V43H22V42Z" fill="#0000C2"/>
<path d="M22 8H23V9H22V8Z" fill="#0000C2"/>
<path d="M22 56H23V57H22V56Z" fill="#0000C2"/>
<path d="M22 32H23V33H22V32Z" fill="#0000C2"/>
<path d="M22 20H23V21H22V20Z" fill="#0000C2"/>
<path d="M22 44H23V45H22V44Z" fill="#0000C2"/>
<path d="M22 10H23V11H22V10Z" fill="#0000C2"/>
<path d="M22 58H23V59H22V58Z" fill="#0000C2"/>
<path d="M22 60H23V61H22V60Z" fill="#0000C2"/>
<path d="M22 34H23V35H22V34Z" fill="#0000C2"/>
<path d="M22 22H23V23H22V22Z" fill="#0000C2"/>
<path d="M22 46H23V47H22V46Z" fill="#0000C2"/>
<path d="M42 0H43V1H42V0Z" fill="#0000C2"/>
<path d="M42 48H43V49H42V48Z" fill="#0000C2"/>
<path d="M42 24H43V25H42V24Z" fill="#0000C2"/>
<path d="M42 12H43V13H42V12Z" fill="#0000C2"/>
<path d="M42 36H43V37H42V36Z" fill="#0000C2"/>
<path d="M42 2H43V3H42V2Z" fill="#0000C2"/>
<path d="M42 50H43V51H42V50Z" fill="#0000C2"/>
<path d="M42 26H43V27H42V26Z" fill="#0000C2"/>
<path d="M42 14H43V15H42V14Z" fill="#0000C2"/>
<path d="M42 38H43V39H42V38Z" fill="#0000C2"/>
<path d="M42 4H43V5H42V4Z" fill="#0000C2"/>
<path d="M42 52H43V53H42V52Z" fill="#0000C2"/>
<path d="M42 28H43V29H42V28Z" fill="#0000C2"/>
<path d="M42 16H43V17H42V16Z" fill="#0000C2"/>
<path d="M42 40H43V41H42V40Z" fill="#0000C2"/>
<path d="M42 6H43V7H42V6Z" fill="#0000C2"/>
<path d="M42 54H43V55H42V54Z" fill="#0000C2"/>
<path d="M42 30H43V31H42V30Z" fill="#0000C2"/>
<path d="M42 18H43V19H42V18Z" fill="#0000C2"/>
<path d="M42 42H43V43H42V42Z" fill="#0000C2"/>
<path d="M42 8H43V9H42V8Z" fill="#0000C2"/>
<path d="M42 56H43V57H42V56Z" fill="#0000C2"/>
<path d="M42 32H43V33H42V32Z" fill="#0000C2"/>
<path d="M42 20H43V21H42V20Z" fill="#0000C2"/>
<path d="M42 44H43V45H42V44Z" fill="#0000C2"/>
<path d="M42 10H43V11H42V10Z" fill="#0000C2"/>
<path d="M42 58H43V59H42V58Z" fill="#0000C2"/>
<path d="M42 60H43V61H42V60Z" fill="#0000C2"/>
<path d="M42 34H43V35H42V34Z" fill="#0000C2"/>
<path d="M42 22H43V23H42V22Z" fill="#0000C2"/>
<path d="M42 46H43V47H42V46Z" fill="#0000C2"/>
<path d="M10 0H11V1H10V0Z" fill="#0000C2"/>
<path d="M10 48H11V49H10V48Z" fill="#0000C2"/>
<path d="M10 24H11V25H10V24Z" fill="#0000C2"/>
<path d="M10 12H11V13H10V12Z" fill="#0000C2"/>
<path d="M10 36H11V37H10V36Z" fill="#0000C2"/>
<path d="M10 2H11V3H10V2Z" fill="#0000C2"/>
<path d="M10 50H11V51H10V50Z" fill="#0000C2"/>
<path d="M10 26H11V27H10V26Z" fill="#0000C2"/>
<path d="M10 14H11V15H10V14Z" fill="#0000C2"/>
<path d="M10 38H11V39H10V38Z" fill="#0000C2"/>
<path d="M10 4H11V5H10V4Z" fill="#0000C2"/>
<path d="M10 52H11V53H10V52Z" fill="#0000C2"/>
<path d="M10 28H11V29H10V28Z" fill="#0000C2"/>
<path d="M10 16H11V17H10V16Z" fill="#0000C2"/>
<path d="M10 40H11V41H10V40Z" fill="#0000C2"/>
<path d="M10 6H11V7H10V6Z" fill="#0000C2"/>
<path d="M10 54H11V55H10V54Z" fill="#0000C2"/>
<path d="M10 30H11V31H10V30Z" fill="#0000C2"/>
<path d="M10 18H11V19H10V18Z" fill="#0000C2"/>
<path d="M10 42H11V43H10V42Z" fill="#0000C2"/>
<path d="M10 8H11V9H10V8Z" fill="#0000C2"/>
<path d="M10 56H11V57H10V56Z" fill="#0000C2"/>
<path d="M10 32H11V33H10V32Z" fill="#0000C2"/>
<path d="M10 20H11V21H10V20Z" fill="#0000C2"/>
<path d="M10 44H11V45H10V44Z" fill="#0000C2"/>
<path d="M10 10H11V11H10V10Z" fill="#0000C2"/>
<path d="M10 58H11V59H10V58Z" fill="#0000C2"/>
<path d="M10 60H11V61H10V60Z" fill="#0000C2"/>
<path d="M10 34H11V35H10V34Z" fill="#0000C2"/>
<path d="M10 22H11V23H10V22Z" fill="#0000C2"/>
<path d="M10 46H11V47H10V46Z" fill="#0000C2"/>
<path d="M24 0H25V1H24V0Z" fill="#0000C2"/>
<path d="M24 48H25V49H24V48Z" fill="#0000C2"/>
<path d="M24 24H25V25H24V24Z" fill="#0000C2"/>
<path d="M24 12H25V13H24V12Z" fill="#0000C2"/>
<path d="M24 36H25V37H24V36Z" fill="#0000C2"/>
<path d="M24 2H25V3H24V2Z" fill="#0000C2"/>
<path d="M24 50H25V51H24V50Z" fill="#0000C2"/>
<path d="M24 26H25V27H24V26Z" fill="#0000C2"/>
<path d="M24 14H25V15H24V14Z" fill="#0000C2"/>
<path d="M24 38H25V39H24V38Z" fill="#0000C2"/>
<path d="M24 4H25V5H24V4Z" fill="#0000C2"/>
<path d="M24 52H25V53H24V52Z" fill="#0000C2"/>
<path d="M24 28H25V29H24V28Z" fill="#0000C2"/>
<path d="M24 16H25V17H24V16Z" fill="#0000C2"/>
<path d="M24 40H25V41H24V40Z" fill="#0000C2"/>
<path d="M24 6H25V7H24V6Z" fill="#0000C2"/>
<path d="M24 54H25V55H24V54Z" fill="#0000C2"/>
<path d="M24 30H25V31H24V30Z" fill="#0000C2"/>
<path d="M24 18H25V19H24V18Z" fill="#0000C2"/>
<path d="M24 42H25V43H24V42Z" fill="#0000C2"/>
<path d="M24 8H25V9H24V8Z" fill="#0000C2"/>
<path d="M24 56H25V57H24V56Z" fill="#0000C2"/>
<path d="M24 32H25V33H24V32Z" fill="#0000C2"/>
<path d="M24 20H25V21H24V20Z" fill="#0000C2"/>
<path d="M24 44H25V45H24V44Z" fill="#0000C2"/>
<path d="M24 10H25V11H24V10Z" fill="#0000C2"/>
<path d="M24 58H25V59H24V58Z" fill="#0000C2"/>
<path d="M24 60H25V61H24V60Z" fill="#0000C2"/>
<path d="M24 34H25V35H24V34Z" fill="#0000C2"/>
<path d="M24 22H25V23H24V22Z" fill="#0000C2"/>
<path d="M24 46H25V47H24V46Z" fill="#0000C2"/>
<path d="M44 0H45V1H44V0Z" fill="#0000C2"/>
<path d="M44 48H45V49H44V48Z" fill="#0000C2"/>
<path d="M44 24H45V25H44V24Z" fill="#0000C2"/>
<path d="M44 12H45V13H44V12Z" fill="#0000C2"/>
<path d="M44 36H45V37H44V36Z" fill="#0000C2"/>
<path d="M44 2H45V3H44V2Z" fill="#0000C2"/>
<path d="M44 50H45V51H44V50Z" fill="#0000C2"/>
<path d="M44 26H45V27H44V26Z" fill="#0000C2"/>
<path d="M44 14H45V15H44V14Z" fill="#0000C2"/>
<path d="M44 38H45V39H44V38Z" fill="#0000C2"/>
<path d="M44 4H45V5H44V4Z" fill="#0000C2"/>
<path d="M44 52H45V53H44V52Z" fill="#0000C2"/>
<path d="M44 28H45V29H44V28Z" fill="#0000C2"/>
<path d="M44 16H45V17H44V16Z" fill="#0000C2"/>
<path d="M44 40H45V41H44V40Z" fill="#0000C2"/>
<path d="M44 6H45V7H44V6Z" fill="#0000C2"/>
<path d="M44 54H45V55H44V54Z" fill="#0000C2"/>
<path d="M44 30H45V31H44V30Z" fill="#0000C2"/>
<path d="M44 18H45V19H44V18Z" fill="#0000C2"/>
<path d="M44 42H45V43H44V42Z" fill="#0000C2"/>
<path d="M44 8H45V9H44V8Z" fill="#0000C2"/>
<path d="M44 56H45V57H44V56Z" fill="#0000C2"/>
<path d="M44 32H45V33H44V32Z" fill="#0000C2"/>
<path d="M44 20H45V21H44V20Z" fill="#0000C2"/>
<path d="M44 44H45V45H44V44Z" fill="#0000C2"/>
<path d="M44 10H45V11H44V10Z" fill="#0000C2"/>
<path d="M44 58H45V59H44V58Z" fill="#0000C2"/>
<path d="M44 60H45V61H44V60Z" fill="#0000C2"/>
<path d="M44 34H45V35H44V34Z" fill="#0000C2"/>
<path d="M44 22H45V23H44V22Z" fill="#0000C2"/>
<path d="M44 46H45V47H44V46Z" fill="#0000C2"/>
<path d="M12 0H13V1H12V0Z" fill="#0000C2"/>
<path d="M12 48H13V49H12V48Z" fill="#0000C2"/>
<path d="M12 24H13V25H12V24Z" fill="#0000C2"/>
<path d="M12 12H13V13H12V12Z" fill="#0000C2"/>
<path d="M12 36H13V37H12V36Z" fill="#0000C2"/>
<path d="M12 2H13V3H12V2Z" fill="#0000C2"/>
<path d="M12 50H13V51H12V50Z" fill="#0000C2"/>
<path d="M12 26H13V27H12V26Z" fill="#0000C2"/>
<path d="M12 14H13V15H12V14Z" fill="#0000C2"/>
<path d="M12 38H13V39H12V38Z" fill="#0000C2"/>
<path d="M12 4H13V5H12V4Z" fill="#0000C2"/>
<path d="M12 52H13V53H12V52Z" fill="#0000C2"/>
<path d="M12 28H13V29H12V28Z" fill="#0000C2"/>
<path d="M12 16H13V17H12V16Z" fill="#0000C2"/>
<path d="M12 40H13V41H12V40Z" fill="#0000C2"/>
<path d="M12 6H13V7H12V6Z" fill="#0000C2"/>
<path d="M12 54H13V55H12V54Z" fill="#0000C2"/>
<path d="M12 30H13V31H12V30Z" fill="#0000C2"/>
<path d="M12 18H13V19H12V18Z" fill="#0000C2"/>
<path d="M12 42H13V43H12V42Z" fill="#0000C2"/>
<path d="M12 8H13V9H12V8Z" fill="#0000C2"/>
<path d="M12 56H13V57H12V56Z" fill="#0000C2"/>
<path d="M12 32H13V33H12V32Z" fill="#0000C2"/>
<path d="M12 20H13V21H12V20Z" fill="#0000C2"/>
<path d="M12 44H13V45H12V44Z" fill="#0000C2"/>
<path d="M12 10H13V11H12V10Z" fill="#0000C2"/>
<path d="M12 58H13V59H12V58Z" fill="#0000C2"/>
<path d="M12 60H13V61H12V60Z" fill="#0000C2"/>
<path d="M12 34H13V35H12V34Z" fill="#0000C2"/>
<path d="M12 22H13V23H12V22Z" fill="#0000C2"/>
<path d="M12 46H13V47H12V46Z" fill="#0000C2"/>
<path d="M26 0H27V1H26V0Z" fill="#0000C2"/>
<path d="M26 48H27V49H26V48Z" fill="#0000C2"/>
<path d="M26 24H27V25H26V24Z" fill="#0000C2"/>
<path d="M26 12H27V13H26V12Z" fill="#0000C2"/>
<path d="M26 36H27V37H26V36Z" fill="#0000C2"/>
<path d="M26 2H27V3H26V2Z" fill="#0000C2"/>
<path d="M26 50H27V51H26V50Z" fill="#0000C2"/>
<path d="M26 26H27V27H26V26Z" fill="#0000C2"/>
<path d="M26 14H27V15H26V14Z" fill="#0000C2"/>
<path d="M26 38H27V39H26V38Z" fill="#0000C2"/>
<path d="M26 4H27V5H26V4Z" fill="#0000C2"/>
<path d="M26 52H27V53H26V52Z" fill="#0000C2"/>
<path d="M26 28H27V29H26V28Z" fill="#0000C2"/>
<path d="M26 16H27V17H26V16Z" fill="#0000C2"/>
<path d="M26 40H27V41H26V40Z" fill="#0000C2"/>
<path d="M26 6H27V7H26V6Z" fill="#0000C2"/>
<path d="M26 54H27V55H26V54Z" fill="#0000C2"/>
<path d="M26 30H27V31H26V30Z" fill="#0000C2"/>
<path d="M26 18H27V19H26V18Z" fill="#0000C2"/>
<path d="M26 42H27V43H26V42Z" fill="#0000C2"/>
<path d="M26 8H27V9H26V8Z" fill="#0000C2"/>
<path d="M26 56H27V57H26V56Z" fill="#0000C2"/>
<path d="M26 32H27V33H26V32Z" fill="#0000C2"/>
<path d="M26 20H27V21H26V20Z" fill="#0000C2"/>
<path d="M26 44H27V45H26V44Z" fill="#0000C2"/>
<path d="M26 10H27V11H26V10Z" fill="#0000C2"/>
<path d="M26 58H27V59H26V58Z" fill="#0000C2"/>
<path d="M26 60H27V61H26V60Z" fill="#0000C2"/>
<path d="M26 34H27V35H26V34Z" fill="#0000C2"/>
<path d="M26 22H27V23H26V22Z" fill="#0000C2"/>
<path d="M26 46H27V47H26V46Z" fill="#0000C2"/>
<path d="M46 0H47V1H46V0Z" fill="#0000C2"/>
<path d="M46 48H47V49H46V48Z" fill="#0000C2"/>
<path d="M46 24H47V25H46V24Z" fill="#0000C2"/>
<path d="M46 12H47V13H46V12Z" fill="#0000C2"/>
<path d="M46 36H47V37H46V36Z" fill="#0000C2"/>
<path d="M46 2H47V3H46V2Z" fill="#0000C2"/>
<path d="M46 50H47V51H46V50Z" fill="#0000C2"/>
<path d="M46 26H47V27H46V26Z" fill="#0000C2"/>
<path d="M46 14H47V15H46V14Z" fill="#0000C2"/>
<path d="M46 38H47V39H46V38Z" fill="#0000C2"/>
<path d="M46 4H47V5H46V4Z" fill="#0000C2"/>
<path d="M46 52H47V53H46V52Z" fill="#0000C2"/>
<path d="M46 28H47V29H46V28Z" fill="#0000C2"/>
<path d="M46 16H47V17H46V16Z" fill="#0000C2"/>
<path d="M46 40H47V41H46V40Z" fill="#0000C2"/>
<path d="M46 6H47V7H46V6Z" fill="#0000C2"/>
<path d="M46 54H47V55H46V54Z" fill="#0000C2"/>
<path d="M46 30H47V31H46V30Z" fill="#0000C2"/>
<path d="M46 18H47V19H46V18Z" fill="#0000C2"/>
<path d="M46 42H47V43H46V42Z" fill="#0000C2"/>
<path d="M46 8H47V9H46V8Z" fill="#0000C2"/>
<path d="M46 56H47V57H46V56Z" fill="#0000C2"/>
<path d="M46 32H47V33H46V32Z" fill="#0000C2"/>
<path d="M46 20H47V21H46V20Z" fill="#0000C2"/>
<path d="M46 44H47V45H46V44Z" fill="#0000C2"/>
<path d="M46 10H47V11H46V10Z" fill="#0000C2"/>
<path d="M46 58H47V59H46V58Z" fill="#0000C2"/>
<path d="M46 60H47V61H46V60Z" fill="#0000C2"/>
<path d="M46 34H47V35H46V34Z" fill="#0000C2"/>
<path d="M46 22H47V23H46V22Z" fill="#0000C2"/>
<path d="M46 46H47V47H46V46Z" fill="#0000C2"/>
<path d="M28 0H29V1H28V0Z" fill="#0000C2"/>
<path d="M28 48H29V49H28V48Z" fill="#0000C2"/>
<path d="M28 24H29V25H28V24Z" fill="#0000C2"/>
<path d="M28 12H29V13H28V12Z" fill="#0000C2"/>
<path d="M28 36H29V37H28V36Z" fill="#0000C2"/>
<path d="M28 2H29V3H28V2Z" fill="#0000C2"/>
<path d="M28 50H29V51H28V50Z" fill="#0000C2"/>
<path d="M28 26H29V27H28V26Z" fill="#0000C2"/>
<path d="M28 14H29V15H28V14Z" fill="#0000C2"/>
<path d="M28 38H29V39H28V38Z" fill="#0000C2"/>
<path d="M28 4H29V5H28V4Z" fill="#0000C2"/>
<path d="M28 52H29V53H28V52Z" fill="#0000C2"/>
<path d="M28 28H29V29H28V28Z" fill="#0000C2"/>
<path d="M28 16H29V17H28V16Z" fill="#0000C2"/>
<path d="M28 40H29V41H28V40Z" fill="#0000C2"/>
<path d="M28 6H29V7H28V6Z" fill="#0000C2"/>
<path d="M28 54H29V55H28V54Z" fill="#0000C2"/>
<path d="M28 30H29V31H28V30Z" fill="#0000C2"/>
<path d="M28 18H29V19H28V18Z" fill="#0000C2"/>
<path d="M28 42H29V43H28V42Z" fill="#0000C2"/>
<path d="M28 8H29V9H28V8Z" fill="#0000C2"/>
<path d="M28 56H29V57H28V56Z" fill="#0000C2"/>
<path d="M28 32H29V33H28V32Z" fill="#0000C2"/>
<path d="M28 20H29V21H28V20Z" fill="#0000C2"/>
<path d="M28 44H29V45H28V44Z" fill="#0000C2"/>
<path d="M28 10H29V11H28V10Z" fill="#0000C2"/>
<path d="M28 58H29V59H28V58Z" fill="#0000C2"/>
<path d="M28 60H29V61H28V60Z" fill="#0000C2"/>
<path d="M28 34H29V35H28V34Z" fill="#0000C2"/>
<path d="M28 22H29V23H28V22Z" fill="#0000C2"/>
<path d="M28 46H29V47H28V46Z" fill="#0000C2"/>
<path d="M48 0H49V1H48V0Z" fill="#0000C2"/>
<path d="M48 48H49V49H48V48Z" fill="#0000C2"/>
<path d="M48 24H49V25H48V24Z" fill="#0000C2"/>
<path d="M48 12H49V13H48V12Z" fill="#0000C2"/>
<path d="M48 36H49V37H48V36Z" fill="#0000C2"/>
<path d="M48 2H49V3H48V2Z" fill="#0000C2"/>
<path d="M48 50H49V51H48V50Z" fill="#0000C2"/>
<path d="M48 26H49V27H48V26Z" fill="#0000C2"/>
<path d="M48 14H49V15H48V14Z" fill="#0000C2"/>
<path d="M48 38H49V39H48V38Z" fill="#0000C2"/>
<path d="M48 4H49V5H48V4Z" fill="#0000C2"/>
<path d="M48 52H49V53H48V52Z" fill="#0000C2"/>
<path d="M48 28H49V29H48V28Z" fill="#0000C2"/>
<path d="M48 16H49V17H48V16Z" fill="#0000C2"/>
<path d="M48 40H49V41H48V40Z" fill="#0000C2"/>
<path d="M48 6H49V7H48V6Z" fill="#0000C2"/>
<path d="M48 54H49V55H48V54Z" fill="#0000C2"/>
<path d="M48 30H49V31H48V30Z" fill="#0000C2"/>
<path d="M48 18H49V19H48V18Z" fill="#0000C2"/>
<path d="M48 42H49V43H48V42Z" fill="#0000C2"/>
<path d="M48 8H49V9H48V8Z" fill="#0000C2"/>
<path d="M48 56H49V57H48V56Z" fill="#0000C2"/>
<path d="M48 32H49V33H48V32Z" fill="#0000C2"/>
<path d="M48 20H49V21H48V20Z" fill="#0000C2"/>
<path d="M48 44H49V45H48V44Z" fill="#0000C2"/>
<path d="M48 10H49V11H48V10Z" fill="#0000C2"/>
<path d="M48 58H49V59H48V58Z" fill="#0000C2"/>
<path d="M48 60H49V61H48V60Z" fill="#0000C2"/>
<path d="M48 34H49V35H48V34Z" fill="#0000C2"/>
<path d="M48 22H49V23H48V22Z" fill="#0000C2"/>
<path d="M48 46H49V47H48V46Z" fill="#0000C2"/>
<path d="M30 0H31V1H30V0Z" fill="#0000C2"/>
<path d="M30 48H31V49H30V48Z" fill="#0000C2"/>
<path d="M30 24H31V25H30V24Z" fill="#0000C2"/>
<path d="M30 12H31V13H30V12Z" fill="#0000C2"/>
<path d="M30 36H31V37H30V36Z" fill="#0000C2"/>
<path d="M30 2H31V3H30V2Z" fill="#0000C2"/>
<path d="M30 50H31V51H30V50Z" fill="#0000C2"/>
<path d="M30 26H31V27H30V26Z" fill="#0000C2"/>
<path d="M30 14H31V15H30V14Z" fill="#0000C2"/>
<path d="M30 38H31V39H30V38Z" fill="#0000C2"/>
<path d="M30 4H31V5H30V4Z" fill="#0000C2"/>
<path d="M30 52H31V53H30V52Z" fill="#0000C2"/>
<path d="M30 28H31V29H30V28Z" fill="#0000C2"/>
<path d="M30 16H31V17H30V16Z" fill="#0000C2"/>
<path d="M30 40H31V41H30V40Z" fill="#0000C2"/>
<path d="M30 6H31V7H30V6Z" fill="#0000C2"/>
<path d="M30 54H31V55H30V54Z" fill="#0000C2"/>
<path d="M30 30H31V31H30V30Z" fill="#0000C2"/>
<path d="M30 18H31V19H30V18Z" fill="#0000C2"/>
<path d="M30 42H31V43H30V42Z" fill="#0000C2"/>
<path d="M30 8H31V9H30V8Z" fill="#0000C2"/>
<path d="M30 56H31V57H30V56Z" fill="#0000C2"/>
<path d="M30 32H31V33H30V32Z" fill="#0000C2"/>
<path d="M30 20H31V21H30V20Z" fill="#0000C2"/>
<path d="M30 44H31V45H30V44Z" fill="#0000C2"/>
<path d="M30 10H31V11H30V10Z" fill="#0000C2"/>
<path d="M30 58H31V59H30V58Z" fill="#0000C2"/>
<path d="M30 60H31V61H30V60Z" fill="#0000C2"/>
<path d="M30 34H31V35H30V34Z" fill="#0000C2"/>
<path d="M30 22H31V23H30V22Z" fill="#0000C2"/>
<path d="M30 46H31V47H30V46Z" fill="#0000C2"/>
<path d="M50 0H51V1H50V0Z" fill="#0000C2"/>
<path d="M50 48H51V49H50V48Z" fill="#0000C2"/>
<path d="M50 24H51V25H50V24Z" fill="#0000C2"/>
<path d="M50 12H51V13H50V12Z" fill="#0000C2"/>
<path d="M50 36H51V37H50V36Z" fill="#0000C2"/>
<path d="M50 2H51V3H50V2Z" fill="#0000C2"/>
<path d="M50 50H51V51H50V50Z" fill="#0000C2"/>
<path d="M50 26H51V27H50V26Z" fill="#0000C2"/>
<path d="M50 14H51V15H50V14Z" fill="#0000C2"/>
<path d="M50 38H51V39H50V38Z" fill="#0000C2"/>
<path d="M50 4H51V5H50V4Z" fill="#0000C2"/>
<path d="M50 52H51V53H50V52Z" fill="#0000C2"/>
<path d="M50 28H51V29H50V28Z" fill="#0000C2"/>
<path d="M50 16H51V17H50V16Z" fill="#0000C2"/>
<path d="M50 40H51V41H50V40Z" fill="#0000C2"/>
<path d="M50 6H51V7H50V6Z" fill="#0000C2"/>
<path d="M50 54H51V55H50V54Z" fill="#0000C2"/>
<path d="M50 30H51V31H50V30Z" fill="#0000C2"/>
<path d="M50 18H51V19H50V18Z" fill="#0000C2"/>
<path d="M50 42H51V43H50V42Z" fill="#0000C2"/>
<path d="M50 8H51V9H50V8Z" fill="#0000C2"/>
<path d="M50 56H51V57H50V56Z" fill="#0000C2"/>
<path d="M50 32H51V33H50V32Z" fill="#0000C2"/>
<path d="M50 20H51V21H50V20Z" fill="#0000C2"/>
<path d="M50 44H51V45H50V44Z" fill="#0000C2"/>
<path d="M50 10H51V11H50V10Z" fill="#0000C2"/>
<path d="M50 58H51V59H50V58Z" fill="#0000C2"/>
<path d="M50 60H51V61H50V60Z" fill="#0000C2"/>
<path d="M50 34H51V35H50V34Z" fill="#0000C2"/>
<path d="M50 22H51V23H50V22Z" fill="#0000C2"/>
<path d="M50 46H51V47H50V46Z" fill="#0000C2"/>
<path d="M32 0H33V1H32V0Z" fill="#0000C2"/>
<path d="M32 48H33V49H32V48Z" fill="#0000C2"/>
<path d="M32 24H33V25H32V24Z" fill="#0000C2"/>
<path d="M32 12H33V13H32V12Z" fill="#0000C2"/>
<path d="M32 36H33V37H32V36Z" fill="#0000C2"/>
<path d="M32 2H33V3H32V2Z" fill="#0000C2"/>
<path d="M32 50H33V51H32V50Z" fill="#0000C2"/>
<path d="M32 26H33V27H32V26Z" fill="#0000C2"/>
<path d="M32 14H33V15H32V14Z" fill="#0000C2"/>
<path d="M32 38H33V39H32V38Z" fill="#0000C2"/>
<path d="M32 4H33V5H32V4Z" fill="#0000C2"/>
<path d="M32 52H33V53H32V52Z" fill="#0000C2"/>
<path d="M32 28H33V29H32V28Z" fill="#0000C2"/>
<path d="M32 16H33V17H32V16Z" fill="#0000C2"/>
<path d="M32 40H33V41H32V40Z" fill="#0000C2"/>
<path d="M32 6H33V7H32V6Z" fill="#0000C2"/>
<path d="M32 54H33V55H32V54Z" fill="#0000C2"/>
<path d="M32 30H33V31H32V30Z" fill="#0000C2"/>
<path d="M32 18H33V19H32V18Z" fill="#0000C2"/>
<path d="M32 42H33V43H32V42Z" fill="#0000C2"/>
<path d="M32 8H33V9H32V8Z" fill="#0000C2"/>
<path d="M32 56H33V57H32V56Z" fill="#0000C2"/>
<path d="M32 32H33V33H32V32Z" fill="#0000C2"/>
<path d="M32 20H33V21H32V20Z" fill="#0000C2"/>
<path d="M32 44H33V45H32V44Z" fill="#0000C2"/>
<path d="M32 10H33V11H32V10Z" fill="#0000C2"/>
<path d="M32 58H33V59H32V58Z" fill="#0000C2"/>
<path d="M32 60H33V61H32V60Z" fill="#0000C2"/>
<path d="M32 34H33V35H32V34Z" fill="#0000C2"/>
<path d="M32 22H33V23H32V22Z" fill="#0000C2"/>
<path d="M32 46H33V47H32V46Z" fill="#0000C2"/>
<path d="M52 0H53V1H52V0Z" fill="#0000C2"/>
<path d="M52 48H53V49H52V48Z" fill="#0000C2"/>
<path d="M52 24H53V25H52V24Z" fill="#0000C2"/>
<path d="M52 12H53V13H52V12Z" fill="#0000C2"/>
<path d="M52 36H53V37H52V36Z" fill="#0000C2"/>
<path d="M52 2H53V3H52V2Z" fill="#0000C2"/>
<path d="M52 50H53V51H52V50Z" fill="#0000C2"/>
<path d="M52 26H53V27H52V26Z" fill="#0000C2"/>
<path d="M52 14H53V15H52V14Z" fill="#0000C2"/>
<path d="M52 38H53V39H52V38Z" fill="#0000C2"/>
<path d="M52 4H53V5H52V4Z" fill="#0000C2"/>
<path d="M52 52H53V53H52V52Z" fill="#0000C2"/>
<path d="M52 28H53V29H52V28Z" fill="#0000C2"/>
<path d="M52 16H53V17H52V16Z" fill="#0000C2"/>
<path d="M52 40H53V41H52V40Z" fill="#0000C2"/>
<path d="M52 6H53V7H52V6Z" fill="#0000C2"/>
<path d="M52 54H53V55H52V54Z" fill="#0000C2"/>
<path d="M52 30H53V31H52V30Z" fill="#0000C2"/>
<path d="M52 18H53V19H52V18Z" fill="#0000C2"/>
<path d="M52 42H53V43H52V42Z" fill="#0000C2"/>
<path d="M52 8H53V9H52V8Z" fill="#0000C2"/>
<path d="M52 56H53V57H52V56Z" fill="#0000C2"/>
<path d="M52 32H53V33H52V32Z" fill="#0000C2"/>
<path d="M52 20H53V21H52V20Z" fill="#0000C2"/>
<path d="M52 44H53V45H52V44Z" fill="#0000C2"/>
<path d="M52 10H53V11H52V10Z" fill="#0000C2"/>
<path d="M52 58H53V59H52V58Z" fill="#0000C2"/>
<path d="M52 60H53V61H52V60Z" fill="#0000C2"/>
<path d="M52 34H53V35H52V34Z" fill="#0000C2"/>
<path d="M52 22H53V23H52V22Z" fill="#0000C2"/>
<path d="M52 46H53V47H52V46Z" fill="#0000C2"/>
<path d="M34 0H35V1H34V0Z" fill="#0000C2"/>
<path d="M34 48H35V49H34V48Z" fill="#0000C2"/>
<path d="M34 24H35V25H34V24Z" fill="#0000C2"/>
<path d="M34 12H35V13H34V12Z" fill="#0000C2"/>
<path d="M34 36H35V37H34V36Z" fill="#0000C2"/>
<path d="M34 2H35V3H34V2Z" fill="#0000C2"/>
<path d="M34 50H35V51H34V50Z" fill="#0000C2"/>
<path d="M34 26H35V27H34V26Z" fill="#0000C2"/>
<path d="M34 14H35V15H34V14Z" fill="#0000C2"/>
<path d="M34 38H35V39H34V38Z" fill="#0000C2"/>
<path d="M34 4H35V5H34V4Z" fill="#0000C2"/>
<path d="M34 52H35V53H34V52Z" fill="#0000C2"/>
<path d="M34 28H35V29H34V28Z" fill="#0000C2"/>
<path d="M34 16H35V17H34V16Z" fill="#0000C2"/>
<path d="M34 40H35V41H34V40Z" fill="#0000C2"/>
<path d="M34 6H35V7H34V6Z" fill="#0000C2"/>
<path d="M34 54H35V55H34V54Z" fill="#0000C2"/>
<path d="M34 30H35V31H34V30Z" fill="#0000C2"/>
<path d="M34 18H35V19H34V18Z" fill="#0000C2"/>
<path d="M34 42H35V43H34V42Z" fill="#0000C2"/>
<path d="M34 8H35V9H34V8Z" fill="#0000C2"/>
<path d="M34 56H35V57H34V56Z" fill="#0000C2"/>
<path d="M34 32H35V33H34V32Z" fill="#0000C2"/>
<path d="M34 20H35V21H34V20Z" fill="#0000C2"/>
<path d="M34 44H35V45H34V44Z" fill="#0000C2"/>
<path d="M34 10H35V11H34V10Z" fill="#0000C2"/>
<path d="M34 58H35V59H34V58Z" fill="#0000C2"/>
<path d="M34 60H35V61H34V60Z" fill="#0000C2"/>
<path d="M34 34H35V35H34V34Z" fill="#0000C2"/>
<path d="M34 22H35V23H34V22Z" fill="#0000C2"/>
<path d="M34 46H35V47H34V46Z" fill="#0000C2"/>
<path d="M54 0H55V1H54V0Z" fill="#0000C2"/>
<path d="M54 48H55V49H54V48Z" fill="#0000C2"/>
<path d="M54 24H55V25H54V24Z" fill="#0000C2"/>
<path d="M54 12H55V13H54V12Z" fill="#0000C2"/>
<path d="M54 36H55V37H54V36Z" fill="#0000C2"/>
<path d="M54 2H55V3H54V2Z" fill="#0000C2"/>
<path d="M54 50H55V51H54V50Z" fill="#0000C2"/>
<path d="M54 26H55V27H54V26Z" fill="#0000C2"/>
<path d="M54 14H55V15H54V14Z" fill="#0000C2"/>
<path d="M54 38H55V39H54V38Z" fill="#0000C2"/>
<path d="M54 4H55V5H54V4Z" fill="#0000C2"/>
<path d="M54 52H55V53H54V52Z" fill="#0000C2"/>
<path d="M54 28H55V29H54V28Z" fill="#0000C2"/>
<path d="M54 16H55V17H54V16Z" fill="#0000C2"/>
<path d="M54 40H55V41H54V40Z" fill="#0000C2"/>
<path d="M54 6H55V7H54V6Z" fill="#0000C2"/>
<path d="M54 54H55V55H54V54Z" fill="#0000C2"/>
<path d="M54 30H55V31H54V30Z" fill="#0000C2"/>
<path d="M54 18H55V19H54V18Z" fill="#0000C2"/>
<path d="M54 42H55V43H54V42Z" fill="#0000C2"/>
<path d="M54 8H55V9H54V8Z" fill="#0000C2"/>
<path d="M54 56H55V57H54V56Z" fill="#0000C2"/>
<path d="M54 32H55V33H54V32Z" fill="#0000C2"/>
<path d="M54 20H55V21H54V20Z" fill="#0000C2"/>
<path d="M54 44H55V45H54V44Z" fill="#0000C2"/>
<path d="M54 10H55V11H54V10Z" fill="#0000C2"/>
<path d="M54 58H55V59H54V58Z" fill="#0000C2"/>
<path d="M54 60H55V61H54V60Z" fill="#0000C2"/>
<path d="M54 34H55V35H54V34Z" fill="#0000C2"/>
<path d="M54 22H55V23H54V22Z" fill="#0000C2"/>
<path d="M54 46H55V47H54V46Z" fill="#0000C2"/>
<path d="M58 0H59V1H58V0Z" fill="#0000C2"/>
<path d="M58 48H59V49H58V48Z" fill="#0000C2"/>
<path d="M58 24H59V25H58V24Z" fill="#0000C2"/>
<path d="M58 12H59V13H58V12Z" fill="#0000C2"/>
<path d="M58 36H59V37H58V36Z" fill="#0000C2"/>
<path d="M58 2H59V3H58V2Z" fill="#0000C2"/>
<path d="M58 50H59V51H58V50Z" fill="#0000C2"/>
<path d="M58 26H59V27H58V26Z" fill="#0000C2"/>
<path d="M58 14H59V15H58V14Z" fill="#0000C2"/>
<path d="M58 38H59V39H58V38Z" fill="#0000C2"/>
<path d="M58 4H59V5H58V4Z" fill="#0000C2"/>
<path d="M58 52H59V53H58V52Z" fill="#0000C2"/>
<path d="M58 28H59V29H58V28Z" fill="#0000C2"/>
<path d="M58 16H59V17H58V16Z" fill="#0000C2"/>
<path d="M58 40H59V41H58V40Z" fill="#0000C2"/>
<path d="M58 6H59V7H58V6Z" fill="#0000C2"/>
<path d="M58 54H59V55H58V54Z" fill="#0000C2"/>
<path d="M58 30H59V31H58V30Z" fill="#0000C2"/>
<path d="M58 18H59V19H58V18Z" fill="#0000C2"/>
<path d="M58 42H59V43H58V42Z" fill="#0000C2"/>
<path d="M58 8H59V9H58V8Z" fill="#0000C2"/>
<path d="M58 56H59V57H58V56Z" fill="#0000C2"/>
<path d="M58 32H59V33H58V32Z" fill="#0000C2"/>
<path d="M58 20H59V21H58V20Z" fill="#0000C2"/>
<path d="M58 44H59V45H58V44Z" fill="#0000C2"/>
<path d="M58 10H59V11H58V10Z" fill="#0000C2"/>
<path d="M58 58H59V59H58V58Z" fill="#0000C2"/>
<path d="M58 60H59V61H58V60Z" fill="#0000C2"/>
<path d="M58 34H59V35H58V34Z" fill="#0000C2"/>
<path d="M58 22H59V23H58V22Z" fill="#0000C2"/>
<path d="M58 46H59V47H58V46Z" fill="#0000C2"/>
<path d="M60 0H61V1H60V0Z" fill="#0000C2"/>
<path d="M60 48H61V49H60V48Z" fill="#0000C2"/>
<path d="M60 24H61V25H60V24Z" fill="#0000C2"/>
<path d="M60 12H61V13H60V12Z" fill="#0000C2"/>
<path d="M60 36H61V37H60V36Z" fill="#0000C2"/>
<path d="M60 2H61V3H60V2Z" fill="#0000C2"/>
<path d="M60 50H61V51H60V50Z" fill="#0000C2"/>
<path d="M60 26H61V27H60V26Z" fill="#0000C2"/>
<path d="M60 14H61V15H60V14Z" fill="#0000C2"/>
<path d="M60 38H61V39H60V38Z" fill="#0000C2"/>
<path d="M60 4H61V5H60V4Z" fill="#0000C2"/>
<path d="M60 52H61V53H60V52Z" fill="#0000C2"/>
<path d="M60 28H61V29H60V28Z" fill="#0000C2"/>
<path d="M60 16H61V17H60V16Z" fill="#0000C2"/>
<path d="M60 40H61V41H60V40Z" fill="#0000C2"/>
<path d="M60 6H61V7H60V6Z" fill="#0000C2"/>
<path d="M60 54H61V55H60V54Z" fill="#0000C2"/>
<path d="M60 30H61V31H60V30Z" fill="#0000C2"/>
<path d="M60 18H61V19H60V18Z" fill="#0000C2"/>
<path d="M60 42H61V43H60V42Z" fill="#0000C2"/>
<path d="M60 8H61V9H60V8Z" fill="#0000C2"/>
<path d="M60 56H61V57H60V56Z" fill="#0000C2"/>
<path d="M60 32H61V33H60V32Z" fill="#0000C2"/>
<path d="M60 20H61V21H60V20Z" fill="#0000C2"/>
<path d="M60 44H61V45H60V44Z" fill="#0000C2"/>
<path d="M60 10H61V11H60V10Z" fill="#0000C2"/>
<path d="M60 58H61V59H60V58Z" fill="#0000C2"/>
<path d="M60 60H61V61H60V60Z" fill="#0000C2"/>
<path d="M60 34H61V35H60V34Z" fill="#0000C2"/>
<path d="M60 22H61V23H60V22Z" fill="#0000C2"/>
<path d="M60 46H61V47H60V46Z" fill="#0000C2"/>
<path d="M36 0H37V1H36V0Z" fill="#0000C2"/>
<path d="M36 48H37V49H36V48Z" fill="#0000C2"/>
<path d="M36 24H37V25H36V24Z" fill="#0000C2"/>
<path d="M36 12H37V13H36V12Z" fill="#0000C2"/>
<path d="M36 36H37V37H36V36Z" fill="#0000C2"/>
<path d="M36 2H37V3H36V2Z" fill="#0000C2"/>
<path d="M36 50H37V51H36V50Z" fill="#0000C2"/>
<path d="M36 26H37V27H36V26Z" fill="#0000C2"/>
<path d="M36 14H37V15H36V14Z" fill="#0000C2"/>
<path d="M36 38H37V39H36V38Z" fill="#0000C2"/>
<path d="M36 4H37V5H36V4Z" fill="#0000C2"/>
<path d="M36 52H37V53H36V52Z" fill="#0000C2"/>
<path d="M36 28H37V29H36V28Z" fill="#0000C2"/>
<path d="M36 16H37V17H36V16Z" fill="#0000C2"/>
<path d="M36 40H37V41H36V40Z" fill="#0000C2"/>
<path d="M36 6H37V7H36V6Z" fill="#0000C2"/>
<path d="M36 54H37V55H36V54Z" fill="#0000C2"/>
<path d="M36 30H37V31H36V30Z" fill="#0000C2"/>
<path d="M36 18H37V19H36V18Z" fill="#0000C2"/>
<path d="M36 42H37V43H36V42Z" fill="#0000C2"/>
<path d="M36 8H37V9H36V8Z" fill="#0000C2"/>
<path d="M36 56H37V57H36V56Z" fill="#0000C2"/>
<path d="M36 32H37V33H36V32Z" fill="#0000C2"/>
<path d="M36 20H37V21H36V20Z" fill="#0000C2"/>
<path d="M36 44H37V45H36V44Z" fill="#0000C2"/>
<path d="M36 10H37V11H36V10Z" fill="#0000C2"/>
<path d="M36 58H37V59H36V58Z" fill="#0000C2"/>
<path d="M36 60H37V61H36V60Z" fill="#0000C2"/>
<path d="M36 34H37V35H36V34Z" fill="#0000C2"/>
<path d="M36 22H37V23H36V22Z" fill="#0000C2"/>
<path d="M36 46H37V47H36V46Z" fill="#0000C2"/>
<path d="M56 0H57V1H56V0Z" fill="#0000C2"/>
<path d="M56 48H57V49H56V48Z" fill="#0000C2"/>
<path d="M56 24H57V25H56V24Z" fill="#0000C2"/>
<path d="M56 12H57V13H56V12Z" fill="#0000C2"/>
<path d="M56 36H57V37H56V36Z" fill="#0000C2"/>
<path d="M56 2H57V3H56V2Z" fill="#0000C2"/>
<path d="M56 50H57V51H56V50Z" fill="#0000C2"/>
<path d="M56 26H57V27H56V26Z" fill="#0000C2"/>
<path d="M56 14H57V15H56V14Z" fill="#0000C2"/>
<path d="M56 38H57V39H56V38Z" fill="#0000C2"/>
<path d="M56 4H57V5H56V4Z" fill="#0000C2"/>
<path d="M56 52H57V53H56V52Z" fill="#0000C2"/>
<path d="M56 28H57V29H56V28Z" fill="#0000C2"/>
<path d="M56 16H57V17H56V16Z" fill="#0000C2"/>
<path d="M56 40H57V41H56V40Z" fill="#0000C2"/>
<path d="M56 6H57V7H56V6Z" fill="#0000C2"/>
<path d="M56 54H57V55H56V54Z" fill="#0000C2"/>
<path d="M56 30H57V31H56V30Z" fill="#0000C2"/>
<path d="M56 18H57V19H56V18Z" fill="#0000C2"/>
<path d="M56 42H57V43H56V42Z" fill="#0000C2"/>
<path d="M56 8H57V9H56V8Z" fill="#0000C2"/>
<path d="M56 56H57V57H56V56Z" fill="#0000C2"/>
<path d="M56 32H57V33H56V32Z" fill="#0000C2"/>
<path d="M56 20H57V21H56V20Z" fill="#0000C2"/>
<path d="M56 44H57V45H56V44Z" fill="#0000C2"/>
<path d="M56 10H57V11H56V10Z" fill="#0000C2"/>
<path d="M56 58H57V59H56V58Z" fill="#0000C2"/>
<path d="M56 60H57V61H56V60Z" fill="#0000C2"/>
<path d="M56 34H57V35H56V34Z" fill="#0000C2"/>
<path d="M56 22H57V23H56V22Z" fill="#0000C2"/>
<path d="M56 46H57V47H56V46Z" fill="#0000C2"/>
</svg>
